<?xml version="1.0" encoding="utf-8"?>
<!-- Generator: Adobe Illustrator 27.7.0, SVG Export Plug-In . SVG Version: 6.00 Build 0)  -->
<svg version="1.1" id="Layer_2_00000096779281603807873790000001698897499830296505_"
	 xmlns="http://www.w3.org/2000/svg" xmlns:xlink="http://www.w3.org/1999/xlink" x="0px" y="0px" viewBox="0 0 213.3 27.1"
	 style="enable-background:new 0 0 213.3 27.1;" xml:space="preserve">
<style type="text/css">
	.st0{fill:#514E89;}
	.st1{fill:#26A1E0;}
	.st2{fill:#9CBD01;}
	.st3{fill:#447AD7;}
	.st4{fill:#97A01C;}
</style>
<g id="Layer_1-2">
	<g>
		<path class="st0" d="M37.2,0.3v10c0,2.1-1.7,3.7-3.7,3.7s-3.7-1.7-3.7-3.7v-10h-4.5v7.5h-6.7c-0.6,0-1.3,0.1-1.8,0.3
			C16.6,3.6,12.9,0,8.4,0S0,3.7,0,8.3l0,0v12.9h4.4v-5.4c1.2,0.6,2.5,1,3.9,1c1.7,0,3.2-0.5,4.5-1.3c0.7,2.5,3,4.3,5.7,4.3h3.8
			c0.8,0,1.5,0.7,1.5,1.5s-0.7,1.5-1.5,1.5h-8.9v4.4h8.9c3.3,0,5.9-2.7,5.9-5.9s-2.7-5.9-5.9-5.9h-3.8c-0.8,0-1.5-0.7-1.5-1.5
			s0.7-1.5,1.5-1.5h7c0.9,3.5,4.1,6.2,7.9,6.2c4.5,0,8.2-3.7,8.2-8.2V0.3C41.6,0.3,37.2,0.3,37.2,0.3z M8.4,12.3
			c-2.2,0-3.9-1.8-3.9-3.9s1.8-3.9,3.9-3.9s3.9,1.8,3.9,3.9S10.5,12.3,8.4,12.3z"/>
		<path class="st1" d="M50.8,3.2c0,1.7-1.4,3.1-3.1,3.1S44.5,5,44.5,3.2s1.4-3.1,3.1-3.1S50.8,1.5,50.8,3.2z"/>
	</g>
	<g>
		<g>
			<g>
				<path class="st0" d="M81.6,9.7c1.2,1.1,2.7,1.7,4.5,1.8h0.3v13.4h-2.9c-1.4,0-2.5-1.1-2.5-2.5V9C81.2,9.3,81.4,9.5,81.6,9.7z"/>
				<path class="st2" d="M82.9,8.7c-1.1-1-1.7-2.6-1.9-4.7V2.2h2.7c1.4,0,2.6,1.2,2.6,2.6v5.3C85.4,10.1,84.1,9.8,82.9,8.7L82.9,8.7
					z"/>
			</g>
			<g>
				<path class="st0" d="M110.2,15.5c0.2-0.9-0.1-1.8-0.7-2.4c-0.1-0.1-0.2-0.1-0.2-0.2c0,0,0,0,0,0c-0.5-0.3-1-0.6-1.6-0.7
					c-0.8-0.2-1.5-0.3-2.3-0.4c-0.3,0-0.5,0-0.8,0c-0.3,0-0.5,0-0.8,0l-6.8,0c-0.9,0-1.6-0.2-2.2-0.6c-0.6-0.4-1-1-1-1.9
					c0-0.2,0-0.5,0.1-0.7c-2.1,0.6-3.4,1.7-3.7,3.1c-0.3,1.1,0.1,2.2,0.8,2.8c1.4,0.8,3.3,1.2,5.6,1.2l6,0c0.9,0,1.7,0.2,2.4,0.4
					c0.7,0.2,1.1,0.8,1.2,1.8c0,0.2,0,0.5,0,0.7C108.7,17.9,109.9,16.6,110.2,15.5L110.2,15.5z"/>
				<path class="st0" d="M96.9,6.3c0.3,0,0.5-0.1,0.8-0.1h10.1c1.4,0,2.5-1.1,2.5-2.5V2.3l-13.3,0c-2.6,0-4.7,0.5-6.2,1.4
					s-2.3,2.7-2.3,5.4c0,0.6,0,1.2,0.1,1.7C89.1,9.2,91,6.6,96.9,6.3L96.9,6.3z"/>
				<path class="st3" d="M111.4,17c-0.8,1.4-2.8,3.3-7.8,3.7c-0.5,0.1-0.9,0.1-1.5,0.1H91.9c-1.4,0-2.5,1.1-2.5,2.5v1.6H103
					c2.6,0,4.6-0.5,6.1-1.4c1.5-0.9,2.3-2.7,2.3-5.3c0-0.2,0-0.4,0-0.6C111.4,17.3,111.4,17.2,111.4,17L111.4,17z"/>
			</g>
			<g>
				<path class="st0" d="M77.6,15.5c0.2-0.9-0.1-1.8-0.7-2.4c-0.1-0.1-0.2-0.1-0.2-0.2c0,0,0,0,0,0c-0.5-0.3-1-0.6-1.6-0.7
					c-0.8-0.2-1.5-0.3-2.3-0.4c-0.3,0-0.6,0-0.8,0s-0.5,0-0.8,0l-6.7,0c-0.9,0-1.6-0.2-2.2-0.6c-0.6-0.4-1-1-1-1.9
					c0-0.2,0-0.5,0.1-0.7c-2.1,0.6-3.4,1.7-3.7,3.1c-0.3,1.1,0.1,2.2,0.8,2.8c1.4,0.8,3.3,1.2,5.6,1.2l6,0c0.9,0,1.7,0.2,2.4,0.4
					c0.7,0.2,1.1,0.8,1.2,1.8c0,0.2,0,0.5,0,0.7C76.1,17.9,77.3,16.6,77.6,15.5L77.6,15.5z"/>
				<path class="st0" d="M78.8,17c-0.8,1.4-2.8,3.3-7.8,3.7c-0.5,0.1-0.9,0.1-1.5,0.1H59.3c-1.4,0-2.5,1.1-2.5,2.5v1.6h13.6
					c2.6,0,4.6-0.5,6.1-1.4c1.5-0.9,2.3-2.7,2.3-5.3c0-0.2,0-0.4,0-0.6C78.9,17.3,78.9,17.1,78.8,17L78.8,17z"/>
				<path class="st3" d="M64.3,6.3c0.3,0,0.5-0.1,0.8-0.1h10.1c1.4,0,2.5-1.1,2.5-2.5V2.2l-13.3,0c-2.6,0-4.7,0.5-6.2,1.4
					s-2.3,2.7-2.3,5.4c0,0.6,0,1.2,0.1,1.7C56.6,9.2,58.4,6.6,64.3,6.3L64.3,6.3z"/>
			</g>
		</g>
		<g>
			<g>
				<path class="st0" d="M128.7,6.5c-1.1-0.8-2.6-1.3-4-1.3c-0.8,0-1.9,0.1-1.9,0.8c0,0.8,1.3,1,2.8,1.4c3,1.1,4.9,2.2,4.9,4.7
					s-2.3,4.1-5.8,4.1c-2.2,0-4.5-0.5-6.2-2l1.5-2.9c1.3,1,3.2,1.8,4.7,1.8c1.1,0,2-0.1,2-0.9c0-0.8-1.1-1.1-2.5-1.5
					C121,9.9,119,8.8,119,6.2c0-2.9,2.4-4,5.5-4c1.9,0,3.8,0.4,5.6,1.6L128.7,6.5L128.7,6.5z"/>
				<path class="st0" d="M135.1,16.1V5.5h-3.8v-3h11.4v3h-3.8v10.6C138.9,16.1,135.1,16.1,135.1,16.1z"/>
				<path class="st0" d="M152.9,2.5h3.8v8.4c0,3.3-2.3,5.5-6.2,5.5c-3.9,0-6.3-2.2-6.3-5.5V2.5h3.8V11c0,1.5,0.7,2.4,2.4,2.4
					s2.4-0.9,2.4-2.4L152.9,2.5L152.9,2.5z"/>
				<path class="st0" d="M158.9,16.1V2.5h6c4.1,0,6.6,2.7,6.6,6.7s-2.5,6.9-6.6,6.9L158.9,16.1L158.9,16.1z M164.8,13.1
					c2,0,3-1.8,3-3.9s-0.9-3.7-3-3.7h-2.2v7.6H164.8z"/>
				<path class="st0" d="M173.2,16.1V2.5h11v2.9h-7.2v2.4h5.4v2.8h-5.4v2.6h7.2v2.9H173.2z"/>
				<path class="st0" d="M195.1,16.1l-5.1-8v8h-3.6V2.5h3.7l5,8v-8h3.6v13.6L195.1,16.1L195.1,16.1z"/>
				<path class="st0" d="M204.2,16.1V5.5h-3.8v-3h11.4v3h-3.8v10.6H204.2z"/>
			</g>
			<g>
				<path class="st4" d="M119.2,24.9v-5.6h0.9v5.6H119.2z"/>
				<path class="st4" d="M125.4,24.9l-3.1-4.4h0v4.4h-0.9v-5.6h1l3.1,4.4h0v-4.4h0.9v5.6H125.4z"/>
				<path class="st4" d="M127.6,24.9v-5.6h4.4V20h-3.4v1.7h2.4v0.7h-2.4v2.4L127.6,24.9L127.6,24.9z"/>
				<path class="st4" d="M132.3,22.1c0-1.7,1.1-2.9,2.9-2.9c1.9,0,2.9,1.1,2.9,2.9s-1.1,2.9-2.9,2.9C133.4,25,132.3,23.9,132.3,22.1
					z M137.2,22.1c0-1.3-0.6-2.1-2-2.1c-1.3,0-2,0.9-2,2.1c0,1.3,0.6,2.1,2,2.1C136.6,24.3,137.2,23.4,137.2,22.1z"/>
				<path class="st4" d="M142.8,24.9l-0.2-0.9c-0.1-0.6-0.7-1-1.4-1.2h-1.1v2.2h-0.9v-5.6h2.6c1.1,0,2.2,0.5,2.2,1.7
					c0,1-1,1.5-1.6,1.5l0,0c0.7,0.3,1.1,0.6,1.3,1.4l0.2,0.9H142.8z M141.6,22c0.8,0,1.4-0.2,1.4-1c0-0.7-0.6-0.9-1.4-0.9H140V22
					H141.6z"/>
				<path class="st4" d="M149.9,24.9v-4.5h0l-1.7,3.8h-0.7l-1.7-3.8h0v4.5h-0.9v-5.6h1.3l1.5,3.7h0l1.5-3.7h1.3v5.6H149.9
					L149.9,24.9z"/>
				<path class="st4" d="M156.1,24.9l-0.6-1.4H153l-0.6,1.4h-1l2.4-5.6h0.8l2.4,5.6H156.1L156.1,24.9z M154.3,20.4L154.3,20.4
					l-1,2.4h2.1L154.3,20.4z"/>
				<path class="st4" d="M158.4,24.9v-4.8h-1.9v-0.7h4.7v0.7h-1.9v4.8H158.4L158.4,24.9z"/>
				<path class="st4" d="M162.2,24.9v-5.6h0.9v5.6H162.2z"/>
				<path class="st4" d="M164.2,22.1c0-1.7,1.1-2.9,2.9-2.9c1.9,0,2.9,1.1,2.9,2.9S169,25,167.2,25C165.3,25,164.2,23.9,164.2,22.1z
					 M169.2,22.1c0-1.3-0.6-2.1-2-2.1c-1.3,0-2,0.9-2,2.1c0,1.3,0.6,2.1,2,2.1C168.5,24.3,169.2,23.4,169.2,22.1z"/>
				<path class="st4" d="M175,24.9l-3.1-4.4h0v4.4h-0.9v-5.6h1l3.1,4.4h0v-4.4h0.9v5.6H175z"/>
			</g>
			<g>
				<path class="st3" d="M179.5,23.7c0.6,0.4,1.3,0.6,1.9,0.6c0.8,0,1.3-0.2,1.3-0.8c0-0.6-0.5-0.7-1.5-1.1c-1.4-0.5-2-0.8-2-1.7
					c0-1,1-1.5,2.2-1.5c0.9,0,1.5,0.2,2.1,0.5l-0.4,0.7c-0.4-0.3-1-0.4-1.7-0.4s-1.2,0.2-1.2,0.7c0,0.5,0.3,0.6,1.5,1
					c1.3,0.5,2,0.8,2,1.8c0,0.9-0.8,1.5-2.3,1.5c-0.9,0-1.6-0.2-2.3-0.6L179.5,23.7L179.5,23.7z"/>
				<path class="st3" d="M186.3,24.9v-1.8l-2.2-3.8h1.1l1.6,3h0l1.6-3h1.1l-2.2,3.8v1.8H186.3L186.3,24.9z"/>
				<path class="st3" d="M190.1,23.7c0.6,0.4,1.3,0.6,1.9,0.6c0.8,0,1.3-0.2,1.3-0.8c0-0.6-0.5-0.7-1.5-1.1c-1.4-0.5-2-0.8-2-1.7
					c0-1,1-1.5,2.2-1.5c0.9,0,1.5,0.2,2.1,0.5l-0.4,0.7c-0.4-0.3-1-0.4-1.7-0.4c-0.7,0-1.2,0.2-1.2,0.7c0,0.5,0.3,0.6,1.5,1
					c1.3,0.5,2,0.8,2,1.8c0,0.9-0.8,1.5-2.3,1.5c-0.9,0-1.6-0.2-2.3-0.6L190.1,23.7L190.1,23.7z"/>
				<path class="st3" d="M196.7,24.9v-4.8h-1.9v-0.7h4.7v0.7h-1.9v4.8H196.7L196.7,24.9z"/>
				<path class="st3" d="M200.5,24.9v-5.6h4.4V20h-3.4v1.6h2.6v0.7h-2.6v1.8h3.5v0.7L200.5,24.9L200.5,24.9z"/>
				<path class="st3" d="M210.9,24.9v-4.5h0l-1.7,3.8h-0.7l-1.7-3.8h0v4.5H206v-5.6h1.3l1.5,3.7h0l1.5-3.7h1.3v5.6H210.9L210.9,24.9
					z"/>
			</g>
		</g>
	</g>
</g>
</svg>
